<svg xmlns="http://www.w3.org/2000/svg" xmlns:xlink="http://www.w3.org/1999/xlink" version="1.1" baseProfile="basic" id="Шар_1" x="0px" y="0px" viewBox="0 0 386.2 46.1" xml:space="preserve">
<style type="text/css">
	.st0{fill:#FFFFFF;}
	.st1{fill:#000;}
</style>
<g>
	<polygon class="st0" points="77.2,96.1 69.1,114.5 60.8,133.4 43.1,96.1 36.7,96.1 58.2,141.2 58.4,141.2 70.1,114.7 78.4,96.1     "/>
	<polygon class="st0" points="146.7,96.1 140.5,96.1 140.5,140.1 169.5,140.1 169.5,139.2 146.7,139.2  "/>
	<polygon class="st0" points="363.4,139.2 363.4,96.1 357.2,96.1 357.2,140.1 386.2,140.1 386.2,139.2  "/>
	<polygon class="st0" points="179.7,140.1 209.9,140.1 209.9,139.2 185.9,139.2 185.9,116.3 201.9,116.3 201.9,115.3 185.9,115.3    185.9,96.9 209.9,96.9 209.9,96.1 179.7,96.1  "/>
	<polygon class="st0" points="0,140.1 30.1,140.1 30.1,139.2 6.1,139.2 6.1,116.3 22.2,116.3 22.2,115.3 6.1,115.3 6.1,96.9    30.1,96.9 30.1,96.1 0,96.1  "/>
	<polygon class="st0" points="253.5,96.1 253.5,131.1 252.1,129.3 251.8,129.1 222.2,96.1 220.1,96.1 220.1,140.1 221,140.1    221,102.6 222.3,104.1 222.6,104.4 254.4,140.8 254.4,96.1  "/>
	<polygon class="st0" points="254.4,141.2 254.6,141.2 254.4,140.8  "/>
	<path class="st0" d="M316.9,117.1c-0.2,0.1-0.5,0.1-0.7,0.2c-2.5,0.7-4.6,1.3-7.6,1.4c-0.6,0-1.3,0-1.9,0c0-0.3,0-0.7,0-1   c0-3.3-0.6-6.3-1.9-9c-1.2-2.7-3.1-5.2-5.6-7.3c-2.2-1.8-4.9-3.2-8.1-4c-3.3-0.9-7.3-1.3-11.9-1.3h-14.3v44h16.2   c4.1,0,7.8-0.6,11-1.8c3.2-1.2,5.9-2.8,8-4.8c2.1-2,3.8-4.4,4.9-7.1c0.9-2.1,1.4-4.4,1.6-6.8c0.4,0,0.8,0,1.3,0c0.2,0,0.5,0,0.7,0   c3.2-0.1,5.3-0.7,7.9-1.4c0.1,0,0.3-0.1,0.4-0.1v22H347v-0.9h-24v-13.5v-8.9c0.1,0,0.3,0,0.4-0.1c4.6-0.7,9.3-0.7,14-0.1l0.1-1   c-4.8-0.7-9.6-0.7-14.3,0.1c-0.1,0-0.2,0-0.3,0v-0.4v-6.2V96.9h24v-0.9h-30.1V117.1z M297.7,126.6c-1,2.5-2.4,4.7-4.2,6.4   c-1.7,1.7-3.8,3.7-6.2,4.6c-2.3,0.9-4.9,1.3-7.6,1.3H271V97.4h8.9c2.8,0,5.4,0.5,7.7,1.5c2.4,1,4.4,2.9,6.1,4.7   c1.7,1.7,3,3.9,4,6.3c0.9,2.2,1.3,4.7,1.4,7.4c-1.5-0.5-2.9-1.1-4.4-1.8l-0.4,0.9c1.6,0.8,3.2,1.5,4.9,2   C299.2,121.4,298.7,124.2,297.7,126.6z"/>
	<polygon class="st0" points="92.3,95 92.4,95.1 92.4,95  "/>
	<path class="st0" d="M113.8,120.8c-2.8,1.4-5.6,2.3-8.3,2.9L92.4,95.1l-12,25.5c-3.1-0.1-6.2,0-9.3,0.4l0.1,1   c2.9-0.4,5.8-0.6,8.7-0.4l-8.7,18.5h1.2l6.1-12.9h0l1.7-3.7h0l0.9-1.8c1.4,0.1,2.8,0.2,4.1,0.4c2.9,0.4,5,1.1,7,1.6   c2.5,0.7,4.7,1.3,7.9,1.4c0,0,0.1,0,0.1,0l1.6,3.5l0,0l5.3,11.5h6.1l-7.1-15.5c2.8-0.5,5.5-1.5,8.3-2.9L113.8,120.8z M85.3,121.1   c-1.3-0.2-2.5-0.3-3.8-0.4l1.4-3.1l0,0l6.9-14.7l7.4,16.2l2.3,5c-2.8-0.1-4.9-0.7-7.2-1.4C90.5,122.1,88.3,121.5,85.3,121.1z"/>
</g>
<g>
	<polygon class="st1" points="77.2,1 69.1,19.5 60.8,38.3 43.1,1 36.7,1 58.2,46.1 58.4,46.1 70.1,19.7 78.4,1  "/>
	<polygon class="st1" points="146.7,1 140.5,1 140.5,45 169.5,45 169.5,44.2 146.7,44.2  "/>
	<polygon class="st1" points="363.4,44.2 363.4,1 357.2,1 357.2,45 386.2,45 386.2,44.2  "/>
	<polygon class="st1" points="179.7,45 209.9,45 209.9,44.1 185.9,44.1 185.9,21.3 201.9,21.3 201.9,20.3 185.9,20.3 185.9,1.9    209.9,1.9 209.9,1 179.7,1  "/>
	<polygon class="st1" points="0,45 30.1,45 30.1,44.1 6.1,44.1 6.1,21.3 22.2,21.3 22.2,20.3 6.1,20.3 6.1,1.9 30.1,1.9 30.1,1 0,1     "/>
	<polygon class="st1" points="253.5,1 253.5,36 252.1,34.3 251.8,34 222.2,1 220.1,1 220.1,45 221,45 221,7.6 222.3,9.1 222.6,9.3    254.4,45.8 254.4,1  "/>
	<polygon class="st1" points="254.4,46.1 254.6,46.1 254.4,45.8  "/>
	<path class="st1" d="M316.9,22c-0.2,0.1-0.5,0.1-0.7,0.2c-2.5,0.7-4.6,1.3-7.6,1.4c-0.6,0-1.3,0-1.9,0c0-0.3,0-0.7,0-1   c0-3.3-0.6-6.3-1.9-9c-1.2-2.7-3.1-5.2-5.6-7.3c-2.2-1.8-4.9-3.2-8.1-4c-3.3-0.9-7.3-1.3-11.9-1.3h-14.3v44h16.2   c4.1,0,7.8-0.6,11-1.8c3.2-1.2,5.9-2.8,8-4.8c2.1-2,3.8-4.4,4.9-7.1c0.9-2.1,1.4-4.4,1.6-6.8c0.4,0,0.8,0,1.3,0c0.2,0,0.5,0,0.7,0   c3.2-0.1,5.3-0.7,7.9-1.4c0.1,0,0.3-0.1,0.4-0.1v22H347v-0.9h-24V30.6v-8.9c0.1,0,0.3,0,0.4-0.1c4.6-0.7,9.3-0.7,14-0.1l0.1-1   c-4.8-0.7-9.6-0.7-14.3,0.1c-0.1,0-0.2,0-0.3,0v-0.4v-6.2V1.9h24V1h-30.1V22z M297.7,31.5c-1,2.5-2.4,4.7-4.2,6.4   c-1.7,1.7-3.8,3.7-6.2,4.6c-2.3,0.9-4.9,1.3-7.6,1.3H271V2.3h8.9c2.8,0,5.4,0.5,7.7,1.5c2.4,1,4.4,2.9,6.1,4.7c1.7,1.7,3,3.9,4,6.3   c0.9,2.2,1.3,4.7,1.4,7.4c-1.5-0.5-2.9-1.1-4.4-1.8l-0.4,0.9c1.6,0.8,3.2,1.5,4.9,2C299.2,26.3,298.7,29.1,297.7,31.5z"/>
	<polygon class="st1" points="92.3,0 92.4,0 92.4,0  "/>
	<path class="st1" d="M113.8,25.7c-2.8,1.4-5.6,2.3-8.3,2.9L92.4,0l-12,25.5c-3.1-0.1-6.2,0-9.3,0.4l0.1,1c2.9-0.4,5.8-0.6,8.7-0.4   L71.1,45h1.2l6.1-12.9h0l1.7-3.7h0l0.9-1.8c1.4,0.1,2.8,0.2,4.1,0.4c2.9,0.4,5,1.1,7,1.6c2.5,0.7,4.7,1.3,7.9,1.4c0,0,0.1,0,0.1,0   l1.6,3.5l0,0L107,45h6.1l-7.1-15.5c2.8-0.5,5.5-1.5,8.3-2.9L113.8,25.7z M85.3,26c-1.3-0.2-2.5-0.3-3.8-0.4l1.4-3.1l0,0l6.9-14.7   L97.3,24l2.3,5c-2.8-0.1-4.9-0.7-7.2-1.4C90.5,27.1,88.3,26.5,85.3,26z"/>
</g>
</svg>